<svg id="Capa_1" enable-background="new 0 0 512.011 512.011" height="512" viewBox="0 0 512.011 512.011" width="512" xmlns="http://www.w3.org/2000/svg"><path d="m211.006 150.002c16.538 0 30-13.462 30-30s-13.462-30-30-30-30 13.462-30 30c0 16.489 13.39 30 30 30z"/><path d="m301.006 150.002c16.555 0 30-13.455 30-30 0-16.538-13.462-30-30-30s-30 13.462-30 30 13.462 30 30 30z"/><path d="m510.424 351.711c3.706-7.412.703-16.421-6.709-20.127l-52.709-25.854v-50.728c0-8.291-6.709-15-15-15h-45.746c7.328 9.637 14.02 19.642 20.07 30h10.675v20.019c6.718 13.852 12.643 28.07 17.126 42.817l52.165 25.582c7.481 3.715 16.436.652 20.128-6.709z"/><path d="m61.006 255.002v50.728l-52.709 25.854c-7.412 3.706-10.415 12.715-6.709 20.127 3.688 7.355 12.64 10.428 20.127 6.709l52.165-25.582c4.482-14.747 10.408-28.965 17.126-42.817v-20.019h10.675c6.05-10.358 12.742-20.363 20.07-30h-45.745c-8.291 0-15 6.709-15 15z"/><path d="m15.006 180.002h57.455l56.836 28.418c2.08 1.04 4.38 1.582 6.709 1.582h11.466c.341-.344 18.635-18.71 24.847-24.946 1.901-1.901 3.988-3.543 6.147-5.054h-38.915l-56.836-28.418c-2.08-1.04-4.38-1.582-6.709-1.582h-61c-8.291 0-15 6.709-15 15s6.709 15 15 15z"/><path d="m364.54 210.002h11.466c2.329 0 4.629-.542 6.709-1.582l56.836-28.418h57.455c8.291 0 15-6.709 15-15s-6.709-15-15-15h-61c-2.329 0-4.629.542-6.709 1.582l-56.836 28.418h-38.915c2.159 1.511 4.246 3.153 6.147 5.054 6.212 6.236 24.506 24.602 24.847 24.946z"/><path d="m271.006 68.346v-23.344c0-8.291-6.709-15-15-15s-15 6.709-15 15v23.344c5.673 3.307 10.704 7.469 15 12.385 4.295-4.916 9.327-9.078 15-12.385z"/><path d="m421.006 422.002c0-129.803-92.802-203.832-98.227-211.438-.648 37.451-15.238 74.114-42.647 101.523l-9.126 9.126v167.571c15.932 14.359 36.909 23.218 60 23.218 49.629 0 90-40.371 90-90z"/><path d="m221.543 231.629c4.559 22.112 15.203 42.903 31.547 59.247l2.915 2.915 2.915-2.915c16.485-16.492 27.228-37.189 31.75-59.176-22.587-6.868-46.53-6.899-69.127-.071z"/><path d="m91.006 422.002c0 49.629 40.371 90 90 90 23.091 0 44.068-8.859 60-23.218v-167.571l-9.126-9.126c-27.052-27.052-42.156-63.693-42.935-101.235-7.286 10.224-97.939 77.752-97.939 211.15z"/><path d="m415.302 57.131 57.407-28.711c7.412-3.706 10.415-12.715 6.709-20.127-3.735-7.412-12.715-10.386-20.127-6.709l-60 30c-1.714.85-3.237 2.036-4.512 3.457l-44.815 50.488c6.619 9.373 10.569 20.693 10.886 32.943z"/><path d="m39.297 28.42 57.407 28.711 54.456 61.346c.315-12.252 4.265-23.569 10.884-32.944l-44.817-50.491c-1.274-1.421-2.798-2.607-4.512-3.457l-60-30c-7.412-3.677-16.392-.703-20.127 6.709-3.706 7.411-.703 16.42 6.709 20.126z"/><path d="m292.949 201.067c-.463-7.601-1.672-15.027-3.539-22.236-13.279-2.611-24.825-9.739-33.404-19.557-8.566 9.803-20.087 16.928-33.343 19.55-.112.427-.3.824-.406 1.252-1.745 7.068-2.565 14.227-2.959 21.385 12.023-3.06 24.287-4.935 36.68-4.935 12.482 0 24.836 1.904 36.951 5.015-.011-.16.029-.315.02-.474z"/></svg>