<?xml version="1.0" encoding="UTF-8"?>
<svg xmlns="http://www.w3.org/2000/svg" id="Icons" viewBox="0 0 60 60" width="512" height="512"><path d="M34.529,16H25.471a1.492,1.492,0,0,0-1.228.6,1.222,1.222,0,0,0-.181,1.111,5.7,5.7,0,0,0,4.766,4.309C29.213,22.007,29.6,22,30,22s.787.007,1.172.016a5.7,5.7,0,0,0,4.766-4.308,1.224,1.224,0,0,0-.181-1.112A1.492,1.492,0,0,0,34.529,16Z"/><path d="M34.353,31.21a1,1,0,0,1-2,0,12.536,12.536,0,0,0-2.365-6.393A12.57,12.57,0,0,0,27.62,31.21a1,1,0,0,1-2,0A14.1,14.1,0,0,1,28.1,24.045c-6.9.3-9.894,2.237-11.18,3.884a5.555,5.555,0,0,0-.949,4.828,44.674,44.674,0,0,0,2.925,7.8,1,1,0,0,1-1.79.894c-.053-.106-.861-1.734-1.7-3.941A34.07,34.07,0,0,0,12,50.89a18.7,18.7,0,0,0,.124,2.1A5.7,5.7,0,0,0,17.76,58h2.578a5.754,5.754,0,0,1-.786-.885c-2.2-3.134-.646-7.533-.578-7.719a1,1,0,0,1,1.881.679c-.013.036-1.266,3.621.338,5.9C22.141,57.318,23.967,58,26.62,58h6.706c2.653,0,4.48-.682,5.427-2.027,1.6-2.277.351-5.862.338-5.9a1,1,0,0,1,1.882-.679c.067.186,1.621,4.585-.578,7.719a5.813,5.813,0,0,1-.787.885H42.24a5.706,5.706,0,0,0,5.638-5.022A18.791,18.791,0,0,0,48,50.89a34.07,34.07,0,0,0-3.4-13.384c-.844,2.207-1.652,3.835-1.7,3.941a1,1,0,1,1-1.79-.894,44.674,44.674,0,0,0,2.925-7.8,5.555,5.555,0,0,0-.949-4.828c-1.288-1.65-4.286-3.587-11.208-3.885A14.1,14.1,0,0,1,34.353,31.21Zm-7.646,22.5a1,1,0,0,1-1.414,0l-1-1a1,1,0,0,1,1.414-1.414l1,1A1,1,0,0,1,26.707,53.707ZM30,41H29v2a1,1,0,0,1-2,0V41H25v1a1,1,0,0,1-2,0V41H22a1,1,0,0,1,0-2h1V37a1,1,0,0,1,2,0v2h2V38a1,1,0,0,1,2,0v1h1a1,1,0,0,1,0,2Zm8-10a1,1,0,0,1,2,0v1a1,1,0,0,1-2,0ZM35.293,45.293l1-1a1,1,0,0,1,1.414,1.414l-1,1a1,1,0,0,1-1.414-1.414Z"/><circle cx="9.999" cy="19" r="2"/><path d="M7.84,15.642a3.319,3.319,0,0,0-.588-.8A2.563,2.563,0,0,0,5.57,14h0a.62.62,0,0,0-.431.136A.625.625,0,0,0,5,14.572a2.561,2.561,0,0,0,.844,1.678,3.331,3.331,0,0,0,.8.59A4.025,4.025,0,0,1,7.84,15.642Z"/><path d="M14.152,16.252A2.566,2.566,0,0,0,15,14.571a.622.622,0,0,0-.137-.435A.465.465,0,0,0,14.427,14a2.561,2.561,0,0,0-1.678.843,3.287,3.287,0,0,0-.59.8,4.007,4.007,0,0,1,1.2,1.2A3.3,3.3,0,0,0,14.152,16.252Z"/><path d="M57.43,18h0a2.563,2.563,0,0,0-1.678.844,3.355,3.355,0,0,0-.59.8,4.022,4.022,0,0,1,1.2,1.2,3.3,3.3,0,0,0,.8-.588A2.565,2.565,0,0,0,58,18.571.494.494,0,0,0,57.43,18Z"/><path d="M48.568,18a.613.613,0,0,0-.43.137.62.62,0,0,0-.138.435,2.557,2.557,0,0,0,.844,1.678,3.331,3.331,0,0,0,.8.59,4.022,4.022,0,0,1,1.2-1.2,3.3,3.3,0,0,0-.588-.8A2.644,2.644,0,0,0,48.568,18Z"/><circle cx="52.999" cy="23" r="2"/><circle cx="43.001" cy="7" r="2"/><path d="M40.841,3.643a3.264,3.264,0,0,0-.587-.795A2.565,2.565,0,0,0,38.573,2h0a.618.618,0,0,0-.432.137A.62.62,0,0,0,38,2.571a2.561,2.561,0,0,0,.844,1.679,3.289,3.289,0,0,0,.8.59A4.03,4.03,0,0,1,40.841,3.643Z"/><path d="M47.429,2a2.561,2.561,0,0,0-1.678.844,3.316,3.316,0,0,0-.59.8,4.018,4.018,0,0,1,1.2,1.2,3.29,3.29,0,0,0,.8-.587A2.561,2.561,0,0,0,48,2.572a.62.62,0,0,0-.137-.434A.478.478,0,0,0,47.429,2Z"/><path d="M20.548,10.108a1,1,0,0,0,.9,1.787A4.694,4.694,0,0,0,24,8a3.787,3.787,0,0,0-1.074-2.571A3.259,3.259,0,0,1,22,3a1,1,0,0,0-2,0,5.209,5.209,0,0,0,1.376,3.694C21.809,7.223,22,7.479,22,8A2.722,2.722,0,0,1,20.548,10.108Z"/><path d="M25.548,10.108a1,1,0,0,0,.9,1.787A4.694,4.694,0,0,0,29,8a3.787,3.787,0,0,0-1.074-2.571A3.259,3.259,0,0,1,27,3a1,1,0,0,0-2,0,5.209,5.209,0,0,0,1.376,3.694C26.809,7.223,27,7.479,27,8A2.722,2.722,0,0,1,25.548,10.108Z"/><path d="M7.553,33.9a1,1,0,0,0,.9-1.787A2.723,2.723,0,0,1,7,30c0-.521.191-.777.624-1.306A5.209,5.209,0,0,0,9,25a1,1,0,0,0-2,0,3.259,3.259,0,0,1-.926,2.429A3.787,3.787,0,0,0,5,30,4.694,4.694,0,0,0,7.553,33.9Z"/><path d="M4,25a1,1,0,0,0-2,0,3.259,3.259,0,0,1-.926,2.429A3.787,3.787,0,0,0,0,30a4.694,4.694,0,0,0,2.553,3.9,1,1,0,0,0,.9-1.787A2.723,2.723,0,0,1,2,30c0-.521.191-.777.624-1.306A5.209,5.209,0,0,0,4,25Z"/></svg>
