<svg height="512pt" viewBox="0 0 512 512" width="512pt" xmlns="http://www.w3.org/2000/svg"><path d="m256 395.070312-5.320312 29.25c-4.179688 23-13.691407 43.871094-27.140626 61.429688l21.851563 21.859375c2.929687 2.929687 6.769531 4.390625 10.609375 4.390625s7.679688-1.460938 10.609375-4.390625l21.851563-21.847656c-13.441407-17.5625-22.960938-38.441407-27.140626-61.441407zm0 0"/><path d="m99.261719 223.058594-61.523438 76.902344c-24.339843 30.429687-37.738281 68.628906-37.738281 107.589843 0 30.789063 21.570312 104.449219 109.679688 104.449219 54.800781 0 101.691406-39.128906 111.492187-93.039062l10.109375-55.632813c-70.203125-11.109375-125.121094-68.777344-132.019531-140.269531zm0 0"/><path d="m474.261719 299.960938-61.523438-76.902344c-6.910156 71.492187-61.816406 129.160156-132.019531 140.269531l10.109375 55.632813c9.800781 53.910156 56.691406 93.039062 111.492187 93.039062 88.109376 0 109.679688-73.660156 109.679688-104.449219 0-38.960937-13.398438-77.160156-37.738281-107.589843zm0 0"/><path d="m182.621094 114.601562h147.320312c12.820313 0 25.199219 2.867188 36.398438 8.308594.699218-3.730468 1.058594-7.582031 1.058594-11.511718 0-34.847657-28.347657-63.199219-63.199219-63.199219h-33.199219v-33.199219c0-8.285156-6.714844-15-15-15s-15 6.714844-15 15v33.199219h-33.199219c-34.851562 0-63.199219 28.351562-63.199219 63.199219 0 4 .367188 7.921874 1.089844 11.710937 11.359375-5.570313 23.917969-8.507813 36.929688-8.507813zm0 0"/><path d="m256 335.265625c70.285156 0 127.46875-57.179687 127.46875-127.464844v-9.671875c0-14.308594-5.574219-27.75-15.675781-37.84375-10.105469-10.113281-23.546875-15.683594-37.855469-15.683594h-147.3125c-14.441406 0-28.023438 5.621094-38.257812 15.84375-10.210938 10.222657-15.832032 23.804688-15.832032 38.246094v9.125c-.003906 70.277344 57.171875 127.449219 127.464844 127.449219zm0 0"/></svg>